<?xml version="1.0" encoding="UTF-8" standalone="no"?>
<!-- Created with Inkscape (http://www.inkscape.org/) -->

<svg
   width="156.25246mm"
   height="218.16858mm"
   viewBox="0 0 156.25246 218.16858"
   version="1.1"
   id="svg5"
   xml:space="preserve"
   inkscape:version="1.2.2 (b0a8486541, 2022-12-01)"
   sodipodi:docname="robot.svg"
   xmlns:inkscape="http://www.inkscape.org/namespaces/inkscape"
   xmlns:sodipodi="http://sodipodi.sourceforge.net/DTD/sodipodi-0.dtd"
   xmlns="http://www.w3.org/2000/svg"
   xmlns:svg="http://www.w3.org/2000/svg"><sodipodi:namedview
     id="namedview7"
     pagecolor="#ffffff"
     bordercolor="#000000"
     borderopacity="0.25"
     inkscape:showpageshadow="2"
     inkscape:pageopacity="0.0"
     inkscape:pagecheckerboard="0"
     inkscape:deskcolor="#d1d1d1"
     inkscape:document-units="mm"
     showgrid="false"
     inkscape:zoom="0.57877462"
     inkscape:cx="-10.36673"
     inkscape:cy="495.87524"
     inkscape:window-width="1916"
     inkscape:window-height="1041"
     inkscape:window-x="0"
     inkscape:window-y="18"
     inkscape:window-maximized="1"
     inkscape:current-layer="layer1" /><defs
     id="defs2" /><g
     inkscape:label="Layer 1"
     inkscape:groupmode="layer"
     id="layer1"
     transform="translate(-7.51071,-12.445647)"><path
       style="fill:#000000;stroke-width:0.264583"
       d="m 73.39028,230.32581 c -17.27208,-1.78971 -30.64417,-9.12633 -36.49603,-20.0236 -2.69304,-5.01494 -3.04318,-7.6755 -2.8442,-21.61169 l 0.14089,-9.86765 -1.59594,-0.98027 c -3.53304,-2.17009 -4.14349,-2.63954 -6.43285,-4.94701 -1.30968,-1.32004 -2.79796,-3.02438 -3.30729,-3.78742 l -0.92604,-1.38732 -1.71979,0.16106 c -6.27888,0.58804 -11.4855203,-3.20193 -12.4447103,-9.05867 -0.357,-2.17979 -0.329,-25.51813 0.033,-27.47616 0.8965,-4.84961 5.2285803,-8.55244 10.0446003,-8.58557 0.92248,-0.006 0.95592,-0.045 1.78046,-2.05699 1.21722,-2.9702 2.92786,-5.74932 4.8731,-7.91689 l 1.70298,-1.89763 0.34129,-2.98903 c 0.33942,-2.97265 1.37137,-7.64696 2.35743,-10.678215 4.57028,-14.049571 14.63423,-25.877707 28.08897,-33.0129 2.84382,-1.508112 7.24993,-3.459679 8.5098,-3.769191 l 0.70459,-0.173098 -0.1387,1.544261 c -0.17601,1.959605 0.23242,3.467725 1.3282,4.904383 2.88334,3.780322 8.00882,5.264163 18.17111,5.260594 8.48013,-0.003 12.8931,-0.833345 16.24192,-3.056162 2.62161,-1.740128 3.75667,-3.997434 3.53909,-7.038274 l -0.12848,-1.795732 1.88155,0.675034 c 2.27133,0.814874 8.3213,3.798093 10.87738,5.363599 7.34998,4.501588 14.95731,12.201299 19.42063,19.656461 3.91078,6.532255 7.09048,16.17182 7.62545,23.11723 0.11914,1.54692 0.27008,2.02332 0.83829,2.64583 2.86945,3.14372 4.77294,6.04573 5.88393,8.97052 l 0.8251,2.17216 1.56038,0.14148 c 4.15191,0.37648 7.49568,2.88515 8.97109,6.73056 0.57294,1.49328 0.58864,1.83393 0.65596,14.2299 0.0379,6.985 -0.0384,13.59297 -0.16954,14.68438 -0.7264,6.04344 -5.26442,9.51485 -12.449,9.523 l -1.76272,0.002 -1.18541,1.65364 c -2.28692,3.19026 -5.50483,6.01959 -9.22961,8.11508 l -1.50503,0.8467 -0.0978,12.48552 c -0.0933,11.90412 -0.12441,12.57028 -0.66895,14.30587 -1.4336,4.56924 -3.97988,8.55687 -7.82935,12.26123 -7.01721,6.75268 -16.38342,10.78719 -28.80701,12.40867 -4.39993,0.57427 -21.94265,0.73898 -26.6587,0.25031 z m 21.56354,-9.96116 c 15.79844,-1.3112 27.5276,-7.3846 31.3189,-16.21703 l 0.69568,-1.62071 0.0797,-10.91406 0.0797,-10.91406 H 85.70696 44.28611 v 10.27072 c 0,11.41188 0.0334,11.69059 1.77772,14.83823 0.51612,0.93132 1.84531,2.64688 2.95377,3.81234 8.14858,8.56759 24.91484,12.48925 45.93622,10.74457 z m 34.58125,-49.74161 c 3.76864,-0.76916 6.56105,-2.30596 9.33958,-5.14002 2.38868,-2.43641 3.55419,-4.23185 4.57841,-7.05291 l 0.70459,-1.9407 0.0869,-13.89062 c 0.0769,-12.30112 0.036,-14.10256 -0.35815,-15.74271 -1.52675,-6.35388 -6.90739,-11.6239 -13.23699,-12.96481 -2.7507,-0.58274 -87.4238,-0.58143 -90.19975,10e-4 -5.43611,1.14132 -10.58516,5.83908 -12.61376,11.50821 -0.60962,1.70363 -0.61618,1.84906 -0.69783,15.47812 -0.0551,9.19992 0.0134,14.25414 0.20686,15.25478 1.34313,6.94815 7.72376,13.37254 14.38709,14.48577 2.09496,0.35001 86.08891,0.35335 87.80306,0.004 z m -109.59062,-25.378 v -12.43541 l -0.66146,-0.0139 c -0.3638,-0.008 -1.52466,-0.0202 -2.57969,-0.0279 l -1.91823,-0.014 -0.0687,12.4633 -0.0687,12.46331 h 2.64842 2.64843 v -12.43542 z m 136.52499,0 v -12.43541 h -2.64583 -2.64583 v 12.43541 12.43542 h 2.64583 2.64583 z m -23.14091,-43.4578 c -0.95272,-2.994225 -1.36254,-4.016645 -2.76645,-6.901865 -4.28065,-8.797275 -11.71701,-16.605488 -20.39472,-21.414539 -3.01582,-1.671328 -2.98584,-1.669748 -3.93356,-0.207176 -2.63305,4.063499 -9.66857,6.114279 -20.89916,6.091888 C 78.3677,79.341658 72.81593,78.422802 69.36978,76.71326 67.06865,75.571728 66.04256,74.733976 65.11195,73.236926 64.67381,72.532124 64.27064,71.955467 64.216,71.955467 c -0.36788,0 -4.07522,2.071756 -6.15186,3.437821 -7.60981,5.005925 -13.69356,11.974158 -17.60998,20.170227 -0.78386,1.64042 -1.73943,3.99461 -2.12349,5.231535 -0.38406,1.23693 -0.74528,2.39779 -0.80271,2.57969 -0.0833,0.26376 9.66783,0.33073 48.15326,0.33073 h 48.25767 z"
       id="path302" /><path
       style="fill:#000000;stroke-width:0.264583"
       d="m 79.91259,66.137074 c -2.95376,-0.286636 -4.74452,-0.70676 -6.25773,-1.468106 -1.82875,-0.920102 -2.44999,-1.732976 -2.58699,-3.385003 -0.10766,-1.298244 -0.0466,-1.495322 0.74196,-2.393399 0.4726,-0.538263 1.34896,-1.261314 1.94746,-1.606778 1.20347,-0.694653 4.26658,-1.694518 5.47275,-1.786427 l 0.77482,-0.05904 V 48.895533 42.352745 L 78.40562,41.500358 C 74.88483,39.6238 71.44933,35.004832 70.60264,31.009412 c -1.70233,-8.033091 3.16165,-15.982163 11.08107,-18.10953 2.70359,-0.726257 6.72889,-0.56658 9.35852,0.371235 4.77038,1.701289 8.31767,5.647673 9.60663,10.687459 0.95536,3.735438 0.55962,7.198841 -1.22917,10.757312 -1.20895,2.404978 -4.58447,5.880018 -6.63784,6.833534 l -1.37821,0.640001 -0.0108,6.643875 -0.0109,6.643875 1.27872,0.151444 c 2.9944,0.354643 6.52244,2.083171 7.29225,3.572759 1.59271,3.081933 -0.53886,5.51095 -5.75125,6.553784 -2.30619,0.461397 -11.0592,0.695344 -14.28907,0.381913 z m 8.1199,-32.14917 c 1.32248,-0.552569 2.74913,-1.869598 3.41273,-3.150512 0.72936,-1.407864 0.77302,-4.113459 0.0879,-5.449009 -1.22531,-2.388688 -3.37054,-3.785788 -5.83975,-3.803208 -3.92566,-0.02769 -7.02212,3.764814 -6.22173,7.620288 0.44501,2.143622 2.05933,4.113897 4.01118,4.895662 0.9692,0.388188 3.50035,0.325199 4.54964,-0.113221 z"
       id="path406" /><path
       style="fill:#000000;stroke-width:0.264583"
       d="m 44.69701,163.48423 c -4.50373,-0.7535 -9.15167,-5.06068 -10.36057,-9.60101 -0.55979,-2.10241 -0.52585,-21.68387 0.0414,-23.86152 0.86945,-3.33808 3.11394,-6.22148 6.11308,-7.85327 2.9591,-1.60998 0.59085,-1.53006 45.33481,-1.53006 44.72621,0 42.5232,-0.0739 45.24375,1.51792 1.7123,1.00188 3.85655,3.11635 4.75799,4.69189 1.51108,2.64111 1.59201,3.42236 1.59201,15.3679 0,10.2287 -0.0322,10.97718 -0.53468,12.44598 -1.49672,4.3746 -5.84881,8.09681 -10.31323,8.82058 -2.0779,0.33687 -79.8615,0.33838 -81.87452,0.002 z"
       id="path404"
       sodipodi:nodetypes="cscssssscscc" /><path
       style="fill:#000000;stroke-width:0.264583"
       d="m 61.49254,200.58515 c -1.39339,-0.74895 -1.9449,-1.66573 -2.05284,-3.4125 -0.12434,-2.01219 0.62701,-3.39255 2.3085,-4.24111 l 1.18803,-0.59955 23.06709,0.0704 c 22.936,0.07 23.07133,0.0735 23.814,0.62387 1.0584,0.78431 1.86385,2.06374 2.07096,3.28965 0.22465,1.32966 -0.59942,3.16303 -1.80977,4.02636 l -0.83719,0.59716 -23.41563,0.0695 c -22.41482,0.0665 -23.45484,0.0484 -24.33315,-0.42372 z"
       id="path402" /><g
       id="g1040"
       transform="translate(-0.02777856,1.22587)"><circle
         style="fill:#ffffff;fill-opacity:1;stroke-width:0.264583"
         id="path460"
         cx="59.668694"
         cy="140.96104"
         r="15.089854" /><circle
         style="fill:#ffffff;fill-opacity:1;stroke-width:0.264583"
         id="path460-3"
         cx="111.74037"
         cy="140.96104"
         r="15.089854" /></g><circle
       style="fill:#000000;fill-opacity:1;stroke-width:0.264583"
       id="path1096"
       cx="65.517288"
       cy="139.54112"
       r="6.1353378" /><circle
       style="fill:#000000;fill-opacity:1;stroke-width:0.264583"
       id="path1096-6"
       cx="105.83623"
       cy="144.83272"
       r="6.1353378" /></g></svg>
